<mxfile host="app.diagrams.net" agent="Mozilla/5.0 (Windows NT 10.0; Win64; x64) AppleWebKit/537.36 (KHTML, like Gecko) Chrome/131.0.0.0 Safari/537.36 OPR/116.0.0.0 (Edition std-2)" version="26.0.14">
  <diagram name="Página-1" id="ABBewzQh3SUwvmwRqsUn">
    <mxGraphModel dx="2492" dy="1656" grid="0" gridSize="10" guides="1" tooltips="1" connect="1" arrows="1" fold="1" page="1" pageScale="1" pageWidth="827" pageHeight="1169" math="0" shadow="0">
      <root>
        <mxCell id="0" />
        <mxCell id="1" parent="0" />
        <mxCell id="2eiazvORfNVIWzaz2Htl-2" value="" style="whiteSpace=wrap;html=1;aspect=fixed;" vertex="1" parent="1">
          <mxGeometry x="-669" y="-1129" width="414" height="414" as="geometry" />
        </mxCell>
        <mxCell id="2eiazvORfNVIWzaz2Htl-6" value="Cadastra usuário" style="ellipse;whiteSpace=wrap;html=1;align=center;" vertex="1" parent="1">
          <mxGeometry x="-585.5" y="-918" width="100" height="40" as="geometry" />
        </mxCell>
        <mxCell id="2eiazvORfNVIWzaz2Htl-8" value="Cadastra vacina" style="ellipse;whiteSpace=wrap;html=1;align=center;" vertex="1" parent="1">
          <mxGeometry x="-585.5" y="-1052" width="100" height="51" as="geometry" />
        </mxCell>
        <mxCell id="2eiazvORfNVIWzaz2Htl-9" value="Atualiza cartão de vacina do usuário" style="ellipse;whiteSpace=wrap;html=1;align=center;" vertex="1" parent="1">
          <mxGeometry x="-589" y="-777" width="121" height="52" as="geometry" />
        </mxCell>
        <mxCell id="2eiazvORfNVIWzaz2Htl-14" value="" style="endArrow=none;html=1;rounded=0;entryX=0;entryY=0.5;entryDx=0;entryDy=0;" edge="1" parent="1" target="2eiazvORfNVIWzaz2Htl-6">
          <mxGeometry width="50" height="50" relative="1" as="geometry">
            <mxPoint x="-761" y="-886" as="sourcePoint" />
            <mxPoint x="-718" y="-963" as="targetPoint" />
          </mxGeometry>
        </mxCell>
        <mxCell id="2eiazvORfNVIWzaz2Htl-15" value="" style="endArrow=none;html=1;rounded=0;entryX=0;entryY=0.5;entryDx=0;entryDy=0;" edge="1" parent="1" source="2eiazvORfNVIWzaz2Htl-5" target="2eiazvORfNVIWzaz2Htl-8">
          <mxGeometry width="50" height="50" relative="1" as="geometry">
            <mxPoint x="-765" y="-909" as="sourcePoint" />
            <mxPoint x="-536" y="-1025" as="targetPoint" />
          </mxGeometry>
        </mxCell>
        <mxCell id="2eiazvORfNVIWzaz2Htl-16" value="" style="endArrow=none;html=1;rounded=0;entryX=0;entryY=0.5;entryDx=0;entryDy=0;" edge="1" parent="1" source="2eiazvORfNVIWzaz2Htl-5" target="2eiazvORfNVIWzaz2Htl-9">
          <mxGeometry width="50" height="50" relative="1" as="geometry">
            <mxPoint x="-758" y="-903" as="sourcePoint" />
            <mxPoint x="-536" y="-1025" as="targetPoint" />
          </mxGeometry>
        </mxCell>
        <mxCell id="2eiazvORfNVIWzaz2Htl-17" value="Sistema de gestão de vacinas entre usuários" style="text;html=1;align=center;verticalAlign=middle;whiteSpace=wrap;rounded=0;" vertex="1" parent="1">
          <mxGeometry x="-606" y="-1121" width="288" height="30" as="geometry" />
        </mxCell>
        <mxCell id="2eiazvORfNVIWzaz2Htl-5" value="Profissional da saúde" style="shape=umlActor;verticalLabelPosition=bottom;verticalAlign=top;html=1;outlineConnect=0;" vertex="1" parent="1">
          <mxGeometry x="-795" y="-919" width="34" height="63" as="geometry" />
        </mxCell>
        <mxCell id="2eiazvORfNVIWzaz2Htl-20" value="&amp;lt;&amp;lt;include&amp;gt;&amp;gt;" style="endArrow=open;endSize=12;dashed=1;html=1;rounded=0;" edge="1" parent="1">
          <mxGeometry width="160" relative="1" as="geometry">
            <mxPoint x="-534" y="-879" as="sourcePoint" />
            <mxPoint x="-534" y="-781" as="targetPoint" />
          </mxGeometry>
        </mxCell>
        <mxCell id="2eiazvORfNVIWzaz2Htl-22" value="Usuário" style="shape=umlActor;verticalLabelPosition=bottom;verticalAlign=top;html=1;outlineConnect=0;" vertex="1" parent="1">
          <mxGeometry x="-156" y="-916" width="30" height="60" as="geometry" />
        </mxCell>
        <mxCell id="2eiazvORfNVIWzaz2Htl-24" value="" style="endArrow=none;html=1;rounded=0;exitX=1;exitY=0.5;exitDx=0;exitDy=0;" edge="1" parent="1" source="2eiazvORfNVIWzaz2Htl-6">
          <mxGeometry width="50" height="50" relative="1" as="geometry">
            <mxPoint x="-323" y="-790" as="sourcePoint" />
            <mxPoint x="-162" y="-902" as="targetPoint" />
          </mxGeometry>
        </mxCell>
        <mxCell id="2eiazvORfNVIWzaz2Htl-26" value="" style="endArrow=none;html=1;rounded=0;exitX=1;exitY=0.5;exitDx=0;exitDy=0;" edge="1" parent="1" source="2eiazvORfNVIWzaz2Htl-9" target="2eiazvORfNVIWzaz2Htl-22">
          <mxGeometry width="50" height="50" relative="1" as="geometry">
            <mxPoint x="-475" y="-888" as="sourcePoint" />
            <mxPoint x="-169" y="-856" as="targetPoint" />
          </mxGeometry>
        </mxCell>
      </root>
    </mxGraphModel>
  </diagram>
</mxfile>
